<svg xmlns="http://www.w3.org/2000/svg" xmlns:xlink="http://www.w3.org/1999/xlink" width="1099.137" height="60.115" viewBox="0 0 1099.137 60.115">
  <defs>
    <clipPath id="clip-path">
      <rect id="Rectangle_32" data-name="Rectangle 32" width="1099.137" height="60.115" transform="translate(0 0)" fill="none"/>
    </clipPath>
  </defs>
  <g id="Group_83" data-name="Group 83" transform="translate(0 0)">
    <g id="Group_82" data-name="Group 82">
      <g id="Group_81" data-name="Group 81" clip-path="url(#clip-path)">
        <path id="Path_1" data-name="Path 1" d="M12.95,8h-10Q0,8,0,5.3A4.755,4.755,0,0,1,.3,3.574,8.118,8.118,0,0,1,.75,2.55H29.3q2.949,0,2.95,2.7a5.142,5.142,0,0,1-.275,1.725A4.024,4.024,0,0,1,31.5,8H18.9V36.85H12.95Z" fill="#ff4c42"/>
        <path id="Path_2" data-name="Path 2" d="M35.4,2.649a2.428,2.428,0,0,1,.8-2A3.48,3.48,0,0,1,38.45,0,5.725,5.725,0,0,1,40.1.224q.75.226,1,.325V14.3a9.81,9.81,0,0,1,3-2.25A11.177,11.177,0,0,1,49.3,11a13.15,13.15,0,0,1,4.225.649,9.288,9.288,0,0,1,3.325,1.925A8.386,8.386,0,0,1,59,16.75a12.076,12.076,0,0,1,.75,4.449v15.65h-5.7V22.9a7.813,7.813,0,0,0-1.375-5Q51.3,16.2,47.95,16.2a6.442,6.442,0,0,0-5.125,1.975A7.661,7.661,0,0,0,41.1,23.4v13.45H35.4Z" fill="#ff4c42"/>
        <path id="Path_3" data-name="Path 3" d="M87.9,35q-.4.25-1.25.7a12.665,12.665,0,0,1-2.125.85,24.314,24.314,0,0,1-2.95.7,21.008,21.008,0,0,1-3.675.3,15.7,15.7,0,0,1-5.225-.85,12.132,12.132,0,0,1-4.25-2.525,11.874,11.874,0,0,1-2.875-4.1A13.914,13.914,0,0,1,64.5,24.5a14.169,14.169,0,0,1,1.025-5.476,12.54,12.54,0,0,1,2.85-4.25,12.844,12.844,0,0,1,4.3-2.75,14.7,14.7,0,0,1,5.425-.975,14.379,14.379,0,0,1,4.6.675,10.657,10.657,0,0,1,3.375,1.8,7.363,7.363,0,0,1,2.775,5.825,7.567,7.567,0,0,1-.65,3.175,5.734,5.734,0,0,1-2.3,2.45,13.714,13.714,0,0,1-4.45,1.6,36.219,36.219,0,0,1-7.1.575q-1,0-1.875-.024T70.6,27.049a6.2,6.2,0,0,0,2.475,4.125A9.641,9.641,0,0,0,79,32.75a13.537,13.537,0,0,0,4.375-.7,14.223,14.223,0,0,0,1.5-.6c.416-.2.725-.35.925-.449ZM70.35,23.149q1.149.051,2.2.05h2.1a22.81,22.81,0,0,0,4.45-.35,8.992,8.992,0,0,0,2.65-.9A2.8,2.8,0,0,0,83,20.7a3.638,3.638,0,0,0,.3-1.449A3.14,3.14,0,0,0,81.775,16.4,7.016,7.016,0,0,0,78,15.449a7.66,7.66,0,0,0-3.25.65,7.06,7.06,0,0,0-2.35,1.725A7.893,7.893,0,0,0,70.925,20.3a8.946,8.946,0,0,0-.575,2.85" fill="#ff4c42"/>
        <path id="Path_4" data-name="Path 4" d="M108.749.5a3.332,3.332,0,0,1,2.45,1,3.334,3.334,0,0,1,1,2.449,3.331,3.331,0,0,1-1,2.45,3.5,3.5,0,0,1-4.9,0,3.327,3.327,0,0,1-1-2.45,3.33,3.33,0,0,1,1-2.449,3.329,3.329,0,0,1,2.45-1M105.9,14.4a2.413,2.413,0,0,1,.8-2.024,3.574,3.574,0,0,1,2.25-.625,5.725,5.725,0,0,1,1.65.224q.75.227,1,.325v24.55h-5.7Z" fill="#ff4c42"/>
        <path id="Path_5" data-name="Path 5" d="M117.7,21.7a10.431,10.431,0,0,1,.925-4.475,9.757,9.757,0,0,1,2.55-3.349,11.307,11.307,0,0,1,3.85-2.1,15.7,15.7,0,0,1,4.875-.724,15.941,15.941,0,0,1,4.9.724,11.278,11.278,0,0,1,3.875,2.1,9.486,9.486,0,0,1,2.525,3.349,10.683,10.683,0,0,1,.9,4.475v15.15h-5.7v-13.7a7.34,7.34,0,0,0-1.65-5.175,7.548,7.548,0,0,0-9.725,0,7.415,7.415,0,0,0-1.625,5.175v13.7h-5.7Z" fill="#ff4c42"/>
        <path id="Path_6" data-name="Path 6" d="M148.048,7.3a2.415,2.415,0,0,1,.8-2.025,3.49,3.49,0,0,1,2.2-.625,5.987,5.987,0,0,1,1.675.225q.774.225,1.025.324V11.75H161a3.23,3.23,0,0,1,2.325.675A2.676,2.676,0,0,1,164,14.4a4.79,4.79,0,0,1-.25,1.575,9.6,9.6,0,0,1-.4,1.025h-9.6V28.15a5.478,5.478,0,0,0,.35,2.125,3.315,3.315,0,0,0,.975,1.325,3.656,3.656,0,0,0,1.45.7,7.263,7.263,0,0,0,1.725.2,7.915,7.915,0,0,0,2.7-.45,7.587,7.587,0,0,0,1.8-.851l2.3,3.8q-.4.3-1.125.75a10.428,10.428,0,0,1-1.775.85,15.947,15.947,0,0,1-2.35.675,13.881,13.881,0,0,1-2.85.275q-4.4,0-6.65-2.275a8.129,8.129,0,0,1-2.25-5.975Z" fill="#ff4c42"/>
        <path id="Path_7" data-name="Path 7" d="M189.349,35q-.4.25-1.25.7a12.665,12.665,0,0,1-2.125.85,24.314,24.314,0,0,1-2.95.7,21.008,21.008,0,0,1-3.675.3,15.7,15.7,0,0,1-5.225-.85,12.132,12.132,0,0,1-4.25-2.525,11.874,11.874,0,0,1-2.875-4.1,13.914,13.914,0,0,1-1.05-5.574,14.169,14.169,0,0,1,1.025-5.476,12.54,12.54,0,0,1,2.85-4.25,12.844,12.844,0,0,1,4.3-2.75,14.7,14.7,0,0,1,5.425-.975,14.379,14.379,0,0,1,4.6.675,10.657,10.657,0,0,1,3.375,1.8,7.363,7.363,0,0,1,2.775,5.825,7.567,7.567,0,0,1-.65,3.175,5.734,5.734,0,0,1-2.3,2.45,13.714,13.714,0,0,1-4.45,1.6,36.219,36.219,0,0,1-7.1.575q-1,0-1.875-.024t-1.875-.076a6.2,6.2,0,0,0,2.475,4.125,9.641,9.641,0,0,0,5.925,1.576,13.537,13.537,0,0,0,4.375-.7,14.223,14.223,0,0,0,1.5-.6c.416-.2.725-.35.925-.449ZM171.8,23.149q1.149.051,2.2.05h2.1a22.81,22.81,0,0,0,4.45-.35,8.992,8.992,0,0,0,2.65-.9,2.8,2.8,0,0,0,1.25-1.25,3.638,3.638,0,0,0,.3-1.449,3.14,3.14,0,0,0-1.525-2.851,7.016,7.016,0,0,0-3.775-.95,7.66,7.66,0,0,0-3.25.65,7.06,7.06,0,0,0-2.35,1.725,7.893,7.893,0,0,0-1.475,2.475,8.946,8.946,0,0,0-.575,2.85" fill="#ff4c42"/>
        <path id="Path_8" data-name="Path 8" d="M194.548,20.7a9.06,9.06,0,0,1,2.825-7.125q2.824-2.525,7.825-2.524a12.769,12.769,0,0,1,5.125.875A2.843,2.843,0,0,1,212.3,14.6a3.2,3.2,0,0,1-.475,1.651,3.344,3.344,0,0,1-.775,1,13.578,13.578,0,0,0-2.1-.75,10.562,10.562,0,0,0-2.85-.351q-5.85,0-5.85,6.2v14.5h-5.7Z" fill="#ff4c42"/>
        <path id="Path_9" data-name="Path 9" d="M215.348,21.7a10.431,10.431,0,0,1,.925-4.475,9.758,9.758,0,0,1,2.55-3.349,11.307,11.307,0,0,1,3.85-2.1,15.7,15.7,0,0,1,4.875-.724,15.941,15.941,0,0,1,4.9.724,11.278,11.278,0,0,1,3.875,2.1,9.486,9.486,0,0,1,2.525,3.349,10.683,10.683,0,0,1,.9,4.475v15.15h-5.7v-13.7a7.34,7.34,0,0,0-1.65-5.175,7.548,7.548,0,0,0-9.725,0,7.415,7.415,0,0,0-1.625,5.175v13.7h-5.7Z" fill="#ff4c42"/>
        <path id="Path_10" data-name="Path 10" d="M267.9,35q-.4.25-1.25.7a12.665,12.665,0,0,1-2.125.85,24.314,24.314,0,0,1-2.95.7,21.007,21.007,0,0,1-3.675.3,15.7,15.7,0,0,1-5.225-.85,12.132,12.132,0,0,1-4.25-2.525,11.874,11.874,0,0,1-2.875-4.1A13.914,13.914,0,0,1,244.5,24.5a14.169,14.169,0,0,1,1.025-5.476,12.54,12.54,0,0,1,2.85-4.25,12.844,12.844,0,0,1,4.3-2.75,14.7,14.7,0,0,1,5.425-.975,14.379,14.379,0,0,1,4.6.675,10.657,10.657,0,0,1,3.375,1.8,7.363,7.363,0,0,1,2.775,5.825,7.567,7.567,0,0,1-.65,3.175,5.734,5.734,0,0,1-2.3,2.45,13.714,13.714,0,0,1-4.45,1.6,36.219,36.219,0,0,1-7.1.575q-1,0-1.875-.024t-1.875-.076a6.2,6.2,0,0,0,2.475,4.125A9.641,9.641,0,0,0,259,32.75a13.537,13.537,0,0,0,4.375-.7,14.223,14.223,0,0,0,1.5-.6c.416-.2.725-.35.925-.449Zm-17.55-11.851q1.149.051,2.2.05h2.1a22.81,22.81,0,0,0,4.45-.35,8.992,8.992,0,0,0,2.65-.9A2.8,2.8,0,0,0,263,20.7a3.638,3.638,0,0,0,.3-1.449,3.14,3.14,0,0,0-1.525-2.851,7.016,7.016,0,0,0-3.775-.95,7.66,7.66,0,0,0-3.25.65,7.06,7.06,0,0,0-2.35,1.725,7.893,7.893,0,0,0-1.475,2.475,8.946,8.946,0,0,0-.575,2.85" fill="#ff4c42"/>
        <path id="Path_11" data-name="Path 11" d="M273.247,7.3a2.415,2.415,0,0,1,.8-2.025,3.49,3.49,0,0,1,2.2-.625,5.987,5.987,0,0,1,1.675.225q.774.225,1.025.324V11.75h7.25a3.23,3.23,0,0,1,2.325.675A2.676,2.676,0,0,1,289.2,14.4a4.789,4.789,0,0,1-.25,1.575,9.593,9.593,0,0,1-.4,1.025h-9.6V28.15a5.478,5.478,0,0,0,.35,2.125,3.315,3.315,0,0,0,.975,1.325,3.656,3.656,0,0,0,1.45.7,7.263,7.263,0,0,0,1.725.2,7.915,7.915,0,0,0,2.7-.45,7.587,7.587,0,0,0,1.8-.851l2.3,3.8q-.4.3-1.125.75a10.428,10.428,0,0,1-1.775.85,15.946,15.946,0,0,1-2.35.675,13.881,13.881,0,0,1-2.85.275q-4.4,0-6.65-2.275a8.129,8.129,0,0,1-2.25-5.975Z" fill="#ff4c42"/>
        <path id="Path_12" data-name="Path 12" d="M294.946,2.649a2.442,2.442,0,0,1,.8-1.975,3.3,3.3,0,0,1,2.2-.674,5.418,5.418,0,0,1,1.675.25,5.941,5.941,0,0,1,1.025.4v13.3h-5.7Z" fill="#ff4c42"/>
        <path id="Path_13" data-name="Path 13" d="M308.846,30.6a7.82,7.82,0,0,0,1.25.65,22.36,22.36,0,0,0,2.225.825,23.006,23.006,0,0,0,3.025.725,21.325,21.325,0,0,0,3.7.3,11.35,11.35,0,0,0,4.25-.675,2.365,2.365,0,0,0,1.65-2.325,2.418,2.418,0,0,0-1.05-2.125,8.751,8.751,0,0,0-3.75-1.025l-3.9-.45a18.3,18.3,0,0,1-3.675-.725A9.462,9.462,0,0,1,309.7,24.35a6.355,6.355,0,0,1-1.875-2.225,6.915,6.915,0,0,1-.675-3.175,7.442,7.442,0,0,1,.625-3.025,6.753,6.753,0,0,1,1.975-2.525,9.822,9.822,0,0,1,3.525-1.725,19.3,19.3,0,0,1,5.275-.625,22.5,22.5,0,0,1,8.075,1.15q2.874,1.151,2.875,3a2.32,2.32,0,0,1-.225,1.05,4.679,4.679,0,0,1-.5.8,3.094,3.094,0,0,1-.575.575,1.837,1.837,0,0,1-.45.275,5.926,5.926,0,0,0-.875-.625,10.073,10.073,0,0,0-1.825-.85,18.92,18.92,0,0,0-2.75-.75,18.718,18.718,0,0,0-3.7-.325q-5.8,0-5.8,3.05a2.176,2.176,0,0,0,1.1,1.975,7.951,7.951,0,0,0,3.15.925l5.1.65a13.663,13.663,0,0,1,6.45,2.275,5.948,5.948,0,0,1,2.3,5.075,7.148,7.148,0,0,1-2.975,6q-2.975,2.25-8.575,2.25a27.556,27.556,0,0,1-4.9-.4,30.094,30.094,0,0,1-3.825-.925A19.114,19.114,0,0,1,308,35.2a7.755,7.755,0,0,1-1.3-.75Z" fill="#ff4c42"/>
        <path id="Path_14" data-name="Path 14" d="M347.6,2.649a2.425,2.425,0,0,1,.8-2A3.48,3.48,0,0,1,350.646,0a5.725,5.725,0,0,1,1.65.224q.75.226,1,.325V14.9a10.146,10.146,0,0,1,3.45-2.725,10.937,10.937,0,0,1,5.05-1.125,13.011,13.011,0,0,1,5.075.975,12.125,12.125,0,0,1,4.05,2.75,12.822,12.822,0,0,1,2.7,4.2A14.154,14.154,0,0,1,374.6,24.3a13.9,13.9,0,0,1-1,5.3,12.219,12.219,0,0,1-2.8,4.2,13.093,13.093,0,0,1-4.275,2.75,14.366,14.366,0,0,1-5.425,1,15.741,15.741,0,0,1-5.425-.9,11.539,11.539,0,0,1-4.275-2.7,12.27,12.27,0,0,1-2.8-4.5,18.259,18.259,0,0,1-1-6.35ZM361,32.4a7.691,7.691,0,0,0,3.125-.625,7.489,7.489,0,0,0,2.45-1.7,7.394,7.394,0,0,0,1.575-2.55,9.17,9.17,0,0,0,.55-3.225,9.384,9.384,0,0,0-.55-3.25,7.355,7.355,0,0,0-1.575-2.575,7.519,7.519,0,0,0-2.45-1.7A7.707,7.707,0,0,0,361,16.149a7.832,7.832,0,0,0-3.175.625A7.061,7.061,0,0,0,355.4,18.5a8.125,8.125,0,0,0-1.575,2.6,8.854,8.854,0,0,0-.575,3.2,9.13,9.13,0,0,0,.575,3.3,7.191,7.191,0,0,0,4.05,4.2,7.97,7.97,0,0,0,3.125.6" fill="#ff4c42"/>
        <path id="Path_15" data-name="Path 15" d="M382.545.5a3.332,3.332,0,0,1,2.45,1,3.334,3.334,0,0,1,1,2.449,3.331,3.331,0,0,1-1,2.45,3.5,3.5,0,0,1-4.9,0,3.327,3.327,0,0,1-1-2.45,3.33,3.33,0,0,1,1-2.449,3.329,3.329,0,0,1,2.45-1M379.7,14.4a2.413,2.413,0,0,1,.8-2.024,3.574,3.574,0,0,1,2.25-.625,5.725,5.725,0,0,1,1.65.224q.75.227,1,.325v24.55h-5.7Z" fill="#ff4c42"/>
        <path id="Path_16" data-name="Path 16" d="M394.645,41.149q.2.1.875.375a14.92,14.92,0,0,0,1.7.55,21.041,21.041,0,0,0,2.4.475,20.754,20.754,0,0,0,2.975.2,15.071,15.071,0,0,0,3.35-.375,7.7,7.7,0,0,0,2.95-1.351A7.1,7.1,0,0,0,411.02,38.3a10.592,10.592,0,0,0,.825-4.5v-.6a11.85,11.85,0,0,1-3.325,2.551,10.677,10.677,0,0,1-5.225,1.2,13.931,13.931,0,0,1-5.15-.925,11.874,11.874,0,0,1-4.05-2.6,11.737,11.737,0,0,1-2.65-4.025,13.758,13.758,0,0,1-.95-5.2,13.217,13.217,0,0,1,1.025-5.25,12.644,12.644,0,0,1,2.825-4.15,12.978,12.978,0,0,1,4.325-2.75,14.867,14.867,0,0,1,5.525-1,15.862,15.862,0,0,1,5.275.85,11.392,11.392,0,0,1,4.225,2.6,11.819,11.819,0,0,1,2.8,4.449,18.271,18.271,0,0,1,1,6.35v7.2a19.066,19.066,0,0,1-1.075,6.774,12.266,12.266,0,0,1-2.975,4.625,11.486,11.486,0,0,1-4.525,2.625,19.008,19.008,0,0,1-5.725.825,28.3,28.3,0,0,1-3.725-.224,27.562,27.562,0,0,1-2.975-.551,19.421,19.421,0,0,1-2.15-.65q-.85-.325-1.25-.525Zm9.5-9a7.79,7.79,0,0,0,3.1-.6,7.179,7.179,0,0,0,2.4-1.65,7.681,7.681,0,0,0,1.575-2.5,9.122,9.122,0,0,0,0-6.375,7.947,7.947,0,0,0-1.575-2.55,7,7,0,0,0-2.4-1.675,8.343,8.343,0,0,0-6.275.025,7.085,7.085,0,0,0-2.425,1.725,7.935,7.935,0,0,0-1.55,2.55,8.661,8.661,0,0,0-.55,3.1,7.963,7.963,0,0,0,2.1,5.775,7.426,7.426,0,0,0,5.6,2.175" fill="#ff4c42"/>
        <path id="Path_17" data-name="Path 17" d="M425.895,41.149q.2.1.875.375a14.92,14.92,0,0,0,1.7.55,21.041,21.041,0,0,0,2.4.475,20.754,20.754,0,0,0,2.975.2,15.071,15.071,0,0,0,3.35-.375,7.7,7.7,0,0,0,2.95-1.351A7.1,7.1,0,0,0,442.27,38.3a10.592,10.592,0,0,0,.825-4.5v-.6a11.85,11.85,0,0,1-3.325,2.551,10.677,10.677,0,0,1-5.225,1.2,13.931,13.931,0,0,1-5.15-.925,11.874,11.874,0,0,1-4.05-2.6A11.737,11.737,0,0,1,422.7,29.4a13.758,13.758,0,0,1-.95-5.2,13.217,13.217,0,0,1,1.025-5.25A12.644,12.644,0,0,1,425.6,14.8a12.978,12.978,0,0,1,4.325-2.75,14.867,14.867,0,0,1,5.525-1,15.862,15.862,0,0,1,5.275.85,11.392,11.392,0,0,1,4.225,2.6,11.819,11.819,0,0,1,2.8,4.449,18.271,18.271,0,0,1,1,6.35v7.2a19.066,19.066,0,0,1-1.075,6.774A12.266,12.266,0,0,1,444.7,43.9a11.486,11.486,0,0,1-4.525,2.625,19.008,19.008,0,0,1-5.725.825,28.3,28.3,0,0,1-3.725-.224,27.562,27.562,0,0,1-2.975-.551,19.421,19.421,0,0,1-2.15-.65q-.85-.325-1.25-.525Zm9.5-9a7.79,7.79,0,0,0,3.1-.6,7.179,7.179,0,0,0,2.4-1.65,7.681,7.681,0,0,0,1.575-2.5,9.122,9.122,0,0,0,0-6.375,7.947,7.947,0,0,0-1.575-2.55,7,7,0,0,0-2.4-1.675,8.343,8.343,0,0,0-6.275.025,7.085,7.085,0,0,0-2.425,1.725,7.935,7.935,0,0,0-1.55,2.55,8.661,8.661,0,0,0-.55,3.1,7.963,7.963,0,0,0,2.1,5.775,7.426,7.426,0,0,0,5.6,2.175" fill="#ff4c42"/>
        <path id="Path_18" data-name="Path 18" d="M476.345,35q-.4.25-1.25.7a12.665,12.665,0,0,1-2.125.85,24.314,24.314,0,0,1-2.95.7,21.007,21.007,0,0,1-3.675.3,15.7,15.7,0,0,1-5.225-.85,12.132,12.132,0,0,1-4.25-2.525,11.874,11.874,0,0,1-2.875-4.1,13.914,13.914,0,0,1-1.05-5.574,14.169,14.169,0,0,1,1.025-5.476,12.54,12.54,0,0,1,2.85-4.25,12.844,12.844,0,0,1,4.3-2.75,14.7,14.7,0,0,1,5.425-.975,14.378,14.378,0,0,1,4.6.675,10.657,10.657,0,0,1,3.375,1.8,7.363,7.363,0,0,1,2.775,5.825,7.567,7.567,0,0,1-.65,3.175,5.734,5.734,0,0,1-2.3,2.45,13.714,13.714,0,0,1-4.45,1.6,36.218,36.218,0,0,1-7.1.575q-1,0-1.875-.024t-1.875-.076a6.2,6.2,0,0,0,2.475,4.125,9.641,9.641,0,0,0,5.925,1.576,13.537,13.537,0,0,0,4.375-.7,14.223,14.223,0,0,0,1.5-.6c.416-.2.725-.35.925-.449ZM458.8,23.149q1.149.051,2.2.05h2.1a22.81,22.81,0,0,0,4.45-.35,8.992,8.992,0,0,0,2.65-.9,2.8,2.8,0,0,0,1.25-1.25,3.638,3.638,0,0,0,.3-1.449A3.14,3.14,0,0,0,470.22,16.4a7.016,7.016,0,0,0-3.775-.95,7.66,7.66,0,0,0-3.25.65,7.06,7.06,0,0,0-2.35,1.725A7.893,7.893,0,0,0,459.37,20.3a8.945,8.945,0,0,0-.575,2.85" fill="#ff4c42"/>
        <path id="Path_19" data-name="Path 19" d="M482.2,30.6a7.82,7.82,0,0,0,1.25.65,22.36,22.36,0,0,0,2.225.825,23.006,23.006,0,0,0,3.025.725,21.325,21.325,0,0,0,3.7.3,11.35,11.35,0,0,0,4.25-.675A2.365,2.365,0,0,0,498.3,30.1a2.418,2.418,0,0,0-1.05-2.125,8.751,8.751,0,0,0-3.75-1.025l-3.9-.45a18.3,18.3,0,0,1-3.675-.725,9.462,9.462,0,0,1-2.875-1.425,6.355,6.355,0,0,1-1.875-2.225,6.915,6.915,0,0,1-.675-3.175,7.442,7.442,0,0,1,.625-3.025A6.753,6.753,0,0,1,483.1,13.4a9.822,9.822,0,0,1,3.525-1.725,19.3,19.3,0,0,1,5.275-.625,22.5,22.5,0,0,1,8.075,1.15q2.874,1.151,2.875,3a2.32,2.32,0,0,1-.225,1.05,4.679,4.679,0,0,1-.5.8,3.094,3.094,0,0,1-.575.575,1.837,1.837,0,0,1-.45.275,5.926,5.926,0,0,0-.875-.625,10.073,10.073,0,0,0-1.825-.85,18.92,18.92,0,0,0-2.75-.75,18.718,18.718,0,0,0-3.7-.325q-5.8,0-5.8,3.05a2.176,2.176,0,0,0,1.1,1.975,7.951,7.951,0,0,0,3.15.925l5.1.65a13.663,13.663,0,0,1,6.45,2.275,5.948,5.948,0,0,1,2.3,5.075,7.148,7.148,0,0,1-2.975,6q-2.975,2.25-8.575,2.25a27.556,27.556,0,0,1-4.9-.4,30.094,30.094,0,0,1-3.825-.925,19.114,19.114,0,0,1-2.625-1.025,7.755,7.755,0,0,1-1.3-.75Z" fill="#ff4c42"/>
        <path id="Path_20" data-name="Path 20" d="M509.145,7.3a2.414,2.414,0,0,1,.8-2.025,3.49,3.49,0,0,1,2.2-.625,5.986,5.986,0,0,1,1.675.225q.774.225,1.025.324V11.75h7.25a3.23,3.23,0,0,1,2.325.675,2.676,2.676,0,0,1,.675,1.975,4.79,4.79,0,0,1-.25,1.575,9.585,9.585,0,0,1-.4,1.025h-9.6V28.15a5.479,5.479,0,0,0,.35,2.125,3.315,3.315,0,0,0,.975,1.325,3.656,3.656,0,0,0,1.45.7,7.263,7.263,0,0,0,1.725.2,7.915,7.915,0,0,0,2.7-.45,7.587,7.587,0,0,0,1.8-.851l2.3,3.8q-.4.3-1.125.75a10.428,10.428,0,0,1-1.775.85,15.948,15.948,0,0,1-2.35.675,13.88,13.88,0,0,1-2.85.275q-4.4,0-6.649-2.275a8.129,8.129,0,0,1-2.25-5.975Z" fill="#ff4c42"/>
        <path id="Path_21" data-name="Path 21" d="M542.394,5.75a2.766,2.766,0,0,1,1.075-2.476,4.417,4.417,0,0,1,2.525-.724,5.126,5.126,0,0,1,2.3.45,10.567,10.567,0,0,1,1.25.7q.5.6,1.625,2.125t2.6,3.6q1.475,2.076,3.15,4.5t3.325,4.825q1.65,2.4,3.125,4.649t2.575,3.951V5.3a2.565,2.565,0,0,1,.8-2.075,3.382,3.382,0,0,1,2.25-.675,5.768,5.768,0,0,1,1.775.25,5.991,5.991,0,0,1,1.025.4V36.85h-6q-.9-1.4-2.15-3.326t-2.775-4.2q-1.526-2.272-3.175-4.724t-3.3-4.875q-1.65-2.426-3.225-4.651t-2.875-4.024v25.8h-5.9Z" fill="#ff4c42"/>
        <path id="Path_22" data-name="Path 22" d="M579.143,5.949q0-3.4,3.65-3.4h17.75q3,0,3,2.7a4.738,4.738,0,0,1-.3,1.724A8.092,8.092,0,0,1,602.793,8h-17.6v9.1h13.9q3,0,3,2.7a4.716,4.716,0,0,1-.3,1.724,7.847,7.847,0,0,1-.45,1.026H585.194v14.3h-6.051Z" fill="#ff4c42"/>
        <path id="Path_23" data-name="Path 23" d="M617.893,8h-10q-2.95,0-2.95-2.7a4.756,4.756,0,0,1,.3-1.726,8.123,8.123,0,0,1,.45-1.024h28.55q2.949,0,2.95,2.7a5.142,5.142,0,0,1-.275,1.725A3.99,3.99,0,0,1,636.443,8h-12.6V36.85h-5.95Z" fill="#ff4c42"/>
        <path id="Path_24" data-name="Path 24" d="M673.243,2.65a2.462,2.462,0,0,1,.775-2A3.376,3.376,0,0,1,676.243,0a5.685,5.685,0,0,1,1.65.225q.75.225,1,.325V23.1a17.863,17.863,0,0,1-1.025,6.349,12.558,12.558,0,0,1-2.825,4.5,11.561,11.561,0,0,1-4.25,2.7,15.4,15.4,0,0,1-5.35.9,14.362,14.362,0,0,1-5.425-1,13.093,13.093,0,0,1-4.275-2.75,12.511,12.511,0,0,1-2.825-4.2,13.583,13.583,0,0,1-1.025-5.3,14.17,14.17,0,0,1,.975-5.325,12.813,12.813,0,0,1,2.7-4.2,12.135,12.135,0,0,1,4.05-2.75,12.99,12.99,0,0,1,5.075-.975,11.055,11.055,0,0,1,5.1,1.125,10.134,10.134,0,0,1,3.45,2.725Zm0,21.65a8.872,8.872,0,0,0-.575-3.2,8.175,8.175,0,0,0-1.574-2.6,7.1,7.1,0,0,0-2.426-1.725,8.188,8.188,0,0,0-6.275,0,7.57,7.57,0,0,0-2.424,1.7,7.342,7.342,0,0,0-1.576,2.575,9.361,9.361,0,0,0-.549,3.25,9.152,9.152,0,0,0,.549,3.225,7.367,7.367,0,0,0,1.576,2.549,7.542,7.542,0,0,0,2.424,1.7,7.639,7.639,0,0,0,3.15.625,7.988,7.988,0,0,0,3.125-.6,7.13,7.13,0,0,0,2.426-1.65,7.594,7.594,0,0,0,1.574-2.55,9.156,9.156,0,0,0,.575-3.3" fill="#ff4c42"/>
        <path id="Path_25" data-name="Path 25" d="M687.243.5a3.336,3.336,0,0,1,2.451,1,3.334,3.334,0,0,1,1,2.449,3.331,3.331,0,0,1-1,2.45,3.5,3.5,0,0,1-4.9,0,3.323,3.323,0,0,1-1-2.45,3.326,3.326,0,0,1,1-2.449,3.329,3.329,0,0,1,2.45-1m-2.85,13.9a2.407,2.407,0,0,1,.8-2.024,3.567,3.567,0,0,1,2.25-.625,5.716,5.716,0,0,1,1.648.224q.75.227,1,.325v24.55h-5.7Z" fill="#ff4c42"/>
        <path id="Path_26" data-name="Path 26" d="M696.843,30.6a7.817,7.817,0,0,0,1.25.65,22.387,22.387,0,0,0,2.226.825,22.912,22.912,0,0,0,3.024.725,21.317,21.317,0,0,0,3.7.3,11.347,11.347,0,0,0,4.25-.675,2.366,2.366,0,0,0,1.651-2.325,2.419,2.419,0,0,0-1.051-2.125,8.743,8.743,0,0,0-3.75-1.025l-3.9-.45a18.282,18.282,0,0,1-3.674-.725,9.439,9.439,0,0,1-2.875-1.425,6.335,6.335,0,0,1-1.875-2.225,6.9,6.9,0,0,1-.676-3.175,7.442,7.442,0,0,1,.625-3.025,6.753,6.753,0,0,1,1.975-2.525,9.83,9.83,0,0,1,3.525-1.725,19.3,19.3,0,0,1,5.275-.625,22.5,22.5,0,0,1,8.075,1.15q2.874,1.151,2.875,3a2.319,2.319,0,0,1-.225,1.05,4.682,4.682,0,0,1-.5.8,3.151,3.151,0,0,1-.574.575,1.855,1.855,0,0,1-.451.275,5.871,5.871,0,0,0-.875-.625,10.071,10.071,0,0,0-1.825-.85,18.924,18.924,0,0,0-2.75-.75,18.718,18.718,0,0,0-3.7-.325q-5.8,0-5.8,3.05a2.176,2.176,0,0,0,1.1,1.975,7.951,7.951,0,0,0,3.15.925l5.1.65a13.663,13.663,0,0,1,6.45,2.275,5.948,5.948,0,0,1,2.3,5.075,7.148,7.148,0,0,1-2.975,6q-2.975,2.25-8.575,2.25a27.538,27.538,0,0,1-4.9-.4,30.073,30.073,0,0,1-3.826-.925,19.117,19.117,0,0,1-2.625-1.025,7.691,7.691,0,0,1-1.3-.75Z" fill="#ff4c42"/>
        <path id="Path_27" data-name="Path 27" d="M723.043,25.449a17.576,17.576,0,0,1,1-6.175,12.619,12.619,0,0,1,2.8-4.5A11.821,11.821,0,0,1,731.193,12a16.08,16.08,0,0,1,5.649-.95,13.5,13.5,0,0,1,5.25,1,12.991,12.991,0,0,1,4.176,2.75,12.415,12.415,0,0,1,2.775,4.2,13.879,13.879,0,0,1,1,5.3,14.17,14.17,0,0,1-.975,5.325,12.526,12.526,0,0,1-2.7,4.175,12.292,12.292,0,0,1-4.05,2.724,12.975,12.975,0,0,1-5.075.976,11.132,11.132,0,0,1-5.05-1.1,9.863,9.863,0,0,1-3.45-2.7v13.15h-5.7Zm13.4,7a7.674,7.674,0,0,0,3.125-.625,7.31,7.31,0,0,0,2.45-1.725,7.6,7.6,0,0,0,1.574-2.6,9.337,9.337,0,0,0,.551-3.25,8.994,8.994,0,0,0-.551-3.176,7.42,7.42,0,0,0-1.574-2.55,7.539,7.539,0,0,0-2.45-1.7,7.707,7.707,0,0,0-3.125-.625,7.953,7.953,0,0,0-3.125.6,7.236,7.236,0,0,0-4.05,4.174,9.546,9.546,0,0,0,0,6.526,8.13,8.13,0,0,0,1.574,2.6,7.058,7.058,0,0,0,2.426,1.725,7.8,7.8,0,0,0,3.175.625" fill="#ff4c42"/>
        <path id="Path_28" data-name="Path 28" d="M755.143,2.649a2.425,2.425,0,0,1,.8-2A3.476,3.476,0,0,1,758.193,0a5.723,5.723,0,0,1,1.649.224q.75.226,1,.325v36.3h-5.7Z" fill="#ff4c42"/>
        <path id="Path_29" data-name="Path 29" d="M789.542,36.75c-.334.066-.858.14-1.575.224s-1.558.166-2.524.25-2.051.158-3.25.225-2.45.1-3.75.1a24.888,24.888,0,0,1-6.375-.674,10.915,10.915,0,0,1-3.9-1.8,5.79,5.79,0,0,1-1.95-2.6,8.972,8.972,0,0,1-.524-3.025,9.555,9.555,0,0,1,.625-3.6,5.942,5.942,0,0,1,2.05-2.6,9.952,9.952,0,0,1,3.724-1.576,25.58,25.58,0,0,1,5.6-.525q1.9,0,3.6.125t2.55.226a6.477,6.477,0,0,0-.575-2.9,4.5,4.5,0,0,0-1.574-1.8,6.475,6.475,0,0,0-2.4-.9,17.747,17.747,0,0,0-3.1-.25,13.28,13.28,0,0,0-4.575.65,9.19,9.19,0,0,0-2.276,1.1,6.06,6.06,0,0,1-.825-.95,2.747,2.747,0,0,1-.524-1.7,2.8,2.8,0,0,1,.375-1.375,3.241,3.241,0,0,1,1.325-1.2,8.617,8.617,0,0,1,2.55-.825,22.578,22.578,0,0,1,4.049-.3,23.334,23.334,0,0,1,5.375.576,11.772,11.772,0,0,1,4.175,1.824,8.416,8.416,0,0,1,2.726,3.3,11.461,11.461,0,0,1,.974,4.949Zm-5.65-11.1q-.5-.1-1.875-.3a31.245,31.245,0,0,0-4.125-.2,9.219,9.219,0,0,0-4.949,1.025,3.589,3.589,0,0,0-1.551,3.225,4.1,4.1,0,0,0,.325,1.65,2.925,2.925,0,0,0,1.125,1.275,6.2,6.2,0,0,0,2.175.8,17.917,17.917,0,0,0,3.426.274,29.752,29.752,0,0,0,3.649-.175q1.352-.174,1.8-.275Z" fill="#ff4c42"/>
        <path id="Path_30" data-name="Path 30" d="M795.392,14.4a2.425,2.425,0,0,1,.8-2,3.391,3.391,0,0,1,2.2-.649,5.992,5.992,0,0,1,1.675.224q.774.227,1.024.325v13.35a6.764,6.764,0,0,0,1.575,4.7,6.239,6.239,0,0,0,4.875,1.75,6.435,6.435,0,0,0,4.8-1.775,7.144,7.144,0,0,0,1.75-5.225V14.4a2.426,2.426,0,0,1,.8-2,3.39,3.39,0,0,1,2.2-.649,5.994,5.994,0,0,1,1.676.224q.774.227,1.024.325V34.2a16.873,16.873,0,0,1-.95,6.025,10.189,10.189,0,0,1-6.9,6.4,19.222,19.222,0,0,1-5.45.724,28.867,28.867,0,0,1-3.75-.224q-1.7-.227-3.026-.526t-2.175-.575c-.567-.184-.966-.325-1.2-.425q.4-1.05.75-2.125t.7-2.125q.351.15,1.1.4a17.3,17.3,0,0,0,1.8.474,24.013,24.013,0,0,0,2.375.375,25.141,25.141,0,0,0,2.825.151,13.264,13.264,0,0,0,3.5-.426,5.937,5.937,0,0,0,2.625-1.475,6.81,6.81,0,0,0,1.649-2.775,13.864,13.864,0,0,0,.576-4.324,6.8,6.8,0,0,1-3.125,2.324,12.152,12.152,0,0,1-4.675.875,14.143,14.143,0,0,1-4.45-.675,9.911,9.911,0,0,1-3.5-1.95,8.853,8.853,0,0,1-2.276-3.175,10.828,10.828,0,0,1-.824-4.35Z" fill="#ff4c42"/>
        <path id="Path_31" data-name="Path 31" d="M858.542,2.65a2.462,2.462,0,0,1,.774-2A3.375,3.375,0,0,1,861.542,0a5.688,5.688,0,0,1,1.649.225c.5.15.832.259,1,.325V23.1a17.887,17.887,0,0,1-1.024,6.349,12.56,12.56,0,0,1-2.826,4.5,11.569,11.569,0,0,1-4.25,2.7,15.408,15.408,0,0,1-5.35.9,14.359,14.359,0,0,1-5.425-1,13.089,13.089,0,0,1-4.274-2.75,12.484,12.484,0,0,1-2.826-4.2,13.583,13.583,0,0,1-1.025-5.3,14.131,14.131,0,0,1,.976-5.325,12.793,12.793,0,0,1,2.7-4.2,12.119,12.119,0,0,1,4.051-2.75,12.981,12.981,0,0,1,5.074-.975,11.055,11.055,0,0,1,5.1,1.125,10.158,10.158,0,0,1,3.451,2.725Zm0,21.65a8.872,8.872,0,0,0-.576-3.2,8.177,8.177,0,0,0-1.575-2.6,7.072,7.072,0,0,0-2.425-1.725,8.188,8.188,0,0,0-6.275,0,7.585,7.585,0,0,0-2.425,1.7,7.34,7.34,0,0,0-1.575,2.575,9.361,9.361,0,0,0-.55,3.25,9.152,9.152,0,0,0,.55,3.225,7.365,7.365,0,0,0,1.575,2.549,7.557,7.557,0,0,0,2.425,1.7,7.639,7.639,0,0,0,3.15.625,7.992,7.992,0,0,0,3.125-.6,7.107,7.107,0,0,0,2.425-1.65,7.6,7.6,0,0,0,1.575-2.55,9.156,9.156,0,0,0,.576-3.3" fill="#ff4c42"/>
        <path id="Path_32" data-name="Path 32" d="M891.792,35q-.4.25-1.25.7a12.7,12.7,0,0,1-2.125.85,24.312,24.312,0,0,1-2.95.7,21.007,21.007,0,0,1-3.675.3,15.7,15.7,0,0,1-5.225-.85,12.132,12.132,0,0,1-4.25-2.525,11.86,11.86,0,0,1-2.875-4.1,13.914,13.914,0,0,1-1.051-5.574,14.169,14.169,0,0,1,1.026-5.476,12.552,12.552,0,0,1,2.849-4.25,12.858,12.858,0,0,1,4.3-2.75,14.691,14.691,0,0,1,5.425-.975,14.374,14.374,0,0,1,4.6.675,10.657,10.657,0,0,1,3.375,1.8,7.363,7.363,0,0,1,2.775,5.825,7.582,7.582,0,0,1-.65,3.175,5.74,5.74,0,0,1-2.3,2.45,13.713,13.713,0,0,1-4.45,1.6,36.219,36.219,0,0,1-7.1.575q-1,0-1.875-.024t-1.875-.076a6.207,6.207,0,0,0,2.475,4.125,9.64,9.64,0,0,0,5.924,1.576,13.524,13.524,0,0,0,4.375-.7,14.049,14.049,0,0,0,1.5-.6c.417-.2.726-.35.926-.449Zm-17.55-11.851q1.15.051,2.2.05h2.1a22.811,22.811,0,0,0,4.45-.35,8.963,8.963,0,0,0,2.649-.9,2.793,2.793,0,0,0,1.25-1.25,3.622,3.622,0,0,0,.3-1.449,3.14,3.14,0,0,0-1.525-2.851,7.022,7.022,0,0,0-3.776-.95,7.667,7.667,0,0,0-3.25.65,7.066,7.066,0,0,0-2.349,1.725,7.893,7.893,0,0,0-1.475,2.475,8.917,8.917,0,0,0-.575,2.85" fill="#ff4c42"/>
        <path id="Path_33" data-name="Path 33" d="M897.742,5.75a2.766,2.766,0,0,1,1.074-2.476,4.421,4.421,0,0,1,2.526-.724,5.121,5.121,0,0,1,2.3.45,10.474,10.474,0,0,1,1.25.7q.5.6,1.625,2.125t2.6,3.6q1.473,2.076,3.149,4.5t3.326,4.825q1.648,2.4,3.125,4.649t2.575,3.951V5.3a2.562,2.562,0,0,1,.8-2.075,3.383,3.383,0,0,1,2.25-.675,5.778,5.778,0,0,1,1.775.25,6.006,6.006,0,0,1,1.024.4V36.85h-6q-.9-1.4-2.149-3.326t-2.775-4.2q-1.527-2.272-3.175-4.724t-3.3-4.875q-1.652-2.426-3.226-4.651t-2.875-4.024v25.8h-5.9Z" fill="#ff4c42"/>
        <path id="Path_34" data-name="Path 34" d="M956.091,35q-.4.25-1.25.7a12.7,12.7,0,0,1-2.125.85,24.406,24.406,0,0,1-2.95.7,21.007,21.007,0,0,1-3.675.3,15.71,15.71,0,0,1-5.226-.85,12.132,12.132,0,0,1-4.25-2.525,11.887,11.887,0,0,1-2.875-4.1,13.931,13.931,0,0,1-1.05-5.574,14.151,14.151,0,0,1,1.026-5.476,12.552,12.552,0,0,1,2.849-4.25,12.854,12.854,0,0,1,4.3-2.75,14.7,14.7,0,0,1,5.426-.975,14.378,14.378,0,0,1,4.6.675,10.657,10.657,0,0,1,3.375,1.8,7.363,7.363,0,0,1,2.775,5.825,7.582,7.582,0,0,1-.65,3.175,5.746,5.746,0,0,1-2.3,2.45,13.732,13.732,0,0,1-4.45,1.6,36.226,36.226,0,0,1-7.1.575q-1,0-1.875-.024t-1.875-.076a6.2,6.2,0,0,0,2.475,4.125,9.638,9.638,0,0,0,5.924,1.576,13.524,13.524,0,0,0,4.375-.7,14.049,14.049,0,0,0,1.5-.6c.417-.2.726-.35.925-.449Zm-17.55-11.851q1.149.051,2.2.05h2.1a22.817,22.817,0,0,0,4.45-.35,8.974,8.974,0,0,0,2.649-.9,2.8,2.8,0,0,0,1.25-1.25,3.621,3.621,0,0,0,.3-1.449,3.14,3.14,0,0,0-1.524-2.851,7.022,7.022,0,0,0-3.776-.95,7.66,7.66,0,0,0-3.25.65,7.056,7.056,0,0,0-2.349,1.725,7.9,7.9,0,0,0-1.476,2.475,8.944,8.944,0,0,0-.574,2.85" fill="#ff4c42"/>
        <path id="Path_35" data-name="Path 35" d="M961.44,7.3a2.415,2.415,0,0,1,.8-2.025,3.49,3.49,0,0,1,2.2-.625,5.981,5.981,0,0,1,1.675.225q.774.225,1.025.324V11.75h7.25a3.23,3.23,0,0,1,2.325.675,2.672,2.672,0,0,1,.675,1.975,4.816,4.816,0,0,1-.25,1.575,9.585,9.585,0,0,1-.4,1.025h-9.6V28.15a5.478,5.478,0,0,0,.35,2.125,3.315,3.315,0,0,0,.975,1.325,3.653,3.653,0,0,0,1.451.7,7.255,7.255,0,0,0,1.724.2,7.915,7.915,0,0,0,2.7-.45,7.588,7.588,0,0,0,1.8-.851l2.3,3.8q-.4.3-1.125.75a10.454,10.454,0,0,1-1.774.85,16.032,16.032,0,0,1-2.351.675,13.881,13.881,0,0,1-2.85.275q-4.4,0-6.65-2.275a8.129,8.129,0,0,1-2.25-5.975Z" fill="#ff4c42"/>
        <path id="Path_36" data-name="Path 36" d="M987.14,36.85q-2.451-5.75-4.025-9.75t-2.5-6.625q-.927-2.625-1.3-4.05a9.292,9.292,0,0,1-.375-2.025,2.583,2.583,0,0,1,2.849-2.65,5.906,5.906,0,0,1,1.726.2,7.113,7.113,0,0,1,.824.3q.6,2.2,1.351,4.675t1.55,4.925q.8,2.451,1.575,4.675T990.19,30.5q.549-1.55,1.175-3.55t1.3-4.125q.676-2.124,1.326-4.3t1.2-4.125a4.4,4.4,0,0,1,1.125-1.975,3.338,3.338,0,0,1,2.325-.675,5.531,5.531,0,0,1,1.8.275q.8.275,1,.375.648,2.25,1.4,4.725t1.5,4.875q.75,2.4,1.476,4.6t1.325,3.9q1.3-3.45,2.675-7.55t2.524-8.2a5.273,5.273,0,0,1,1.176-2.275,3.033,3.033,0,0,1,2.225-.725,4.7,4.7,0,0,1,2.2.45,7.28,7.28,0,0,1,.95.55q-.4,1.65-1.4,4.55t-2.25,6.275q-1.251,3.375-2.651,6.9t-2.649,6.375h-5.9q-.4-1.05-1.075-3.075t-1.474-4.425q-.8-2.4-1.576-4.925T998.49,19.8q-.651,2.1-1.425,4.625t-1.55,4.925q-.777,2.4-1.426,4.425t-1.05,3.075Z" fill="#ff4c42"/>
        <path id="Path_37" data-name="Path 37" d="M1034.839,11.05a14.6,14.6,0,0,1,5.425,1,13.379,13.379,0,0,1,4.375,2.774,12.819,12.819,0,0,1,2.9,4.2,13.138,13.138,0,0,1,1.051,5.276,13,13,0,0,1-1.051,5.224,12.792,12.792,0,0,1-2.9,4.2,13.674,13.674,0,0,1-4.375,2.8,14.858,14.858,0,0,1-10.851,0,13.663,13.663,0,0,1-4.375-2.8,12.792,12.792,0,0,1-2.9-4.2,13,13,0,0,1-1.05-5.224,13.139,13.139,0,0,1,1.05-5.276,12.819,12.819,0,0,1,2.9-4.2,13.369,13.369,0,0,1,4.375-2.774,14.6,14.6,0,0,1,5.426-1m0,21.45a7.861,7.861,0,0,0,3.149-.625,7.121,7.121,0,0,0,2.476-1.75,8.307,8.307,0,0,0,1.6-2.6,8.819,8.819,0,0,0,.575-3.224,9.244,9.244,0,0,0-.575-3.276,7.906,7.906,0,0,0-1.6-2.625,7.3,7.3,0,0,0-2.476-1.724,8.314,8.314,0,0,0-6.325,0,7.357,7.357,0,0,0-2.449,1.724,7.876,7.876,0,0,0-1.6,2.625,9.222,9.222,0,0,0-.575,3.276,8.8,8.8,0,0,0,.575,3.224,8.274,8.274,0,0,0,1.6,2.6,7.176,7.176,0,0,0,2.449,1.75,7.818,7.818,0,0,0,3.176.625" fill="#ff4c42"/>
        <path id="Path_38" data-name="Path 38" d="M1053.389,20.7a9.062,9.062,0,0,1,2.824-7.125q2.824-2.525,7.825-2.524a12.765,12.765,0,0,1,5.125.875,2.843,2.843,0,0,1,1.976,2.674,3.188,3.188,0,0,1-.476,1.651,3.363,3.363,0,0,1-.774,1,13.6,13.6,0,0,0-2.1-.75,10.554,10.554,0,0,0-2.849-.351q-5.852,0-5.851,6.2v14.5h-5.7Z" fill="#ff4c42"/>
        <path id="Path_39" data-name="Path 39" d="M1074.188,2.649a2.425,2.425,0,0,1,.8-2,3.476,3.476,0,0,1,2.25-.649,5.723,5.723,0,0,1,1.649.224q.75.226,1,.325V20.974q.651-.449,1.825-1.32t2.625-1.919q1.45-1.046,3-2.192t2.951-2.144a12.817,12.817,0,0,1,2-1.225,5.536,5.536,0,0,1,2.349-.424,3.69,3.69,0,0,1,2.3.724,4.209,4.209,0,0,1,1.2,1.225q-1.048.949-2.875,2.319t-3.724,2.743q-1.9,1.371-3.6,2.543t-2.45,1.72a60.114,60.114,0,0,1,7.75,6.838,69.622,69.622,0,0,1,5.9,6.987h-7.1q-1.152-1.4-2.576-2.931t-3.049-3.007q-1.626-1.479-3.3-2.857t-3.226-2.53V36.849h-5.7Z" fill="#ff4c42"/>
        <path id="Path_40" data-name="Path 40" d="M891.875,55.385a.633.633,0,0,1-.57-.229.893.893,0,0,1-.151-.512,1.806,1.806,0,0,1,.113-.609h4.066a.639.639,0,0,1,.571.229.913.913,0,0,1,.151.513,1.7,1.7,0,0,1-.115.608Z" fill="#ff4c42"/>
        <path id="Path_41" data-name="Path 41" d="M902.591,51.28a4.545,4.545,0,0,0-1.473.229,3.07,3.07,0,0,0-1.169.7,3.2,3.2,0,0,0-.769,1.206,4.865,4.865,0,0,0-.276,1.719,4.638,4.638,0,0,0,.3,1.767,3.239,3.239,0,0,0,.826,1.207,3.382,3.382,0,0,0,1.237.693,4.887,4.887,0,0,0,1.509.228,4.273,4.273,0,0,0,1.568-.228,7.884,7.884,0,0,0,.864-.4l.514.932a7.553,7.553,0,0,1-1.274.541,6.247,6.247,0,0,1-1.9.237,5.957,5.957,0,0,1-1.984-.322,4.3,4.3,0,0,1-2.632-2.49,5.326,5.326,0,0,1-.38-2.071,5.657,5.657,0,0,1,.38-2.138,4.519,4.519,0,0,1,1.045-1.585,4.354,4.354,0,0,1,1.595-.979,5.994,5.994,0,0,1,2.034-.333,5.921,5.921,0,0,1,1.957.257,3.38,3.38,0,0,1,.874.408.941.941,0,0,1,.228.238.621.621,0,0,1,.094.351.826.826,0,0,1-.1.361,1,1,0,0,1-.314.362,3.962,3.962,0,0,0-1.016-.589,4.34,4.34,0,0,0-1.738-.305" fill="#ff4c42"/>
        <path id="Path_42" data-name="Path 42" d="M907.968,55.973a3.358,3.358,0,0,0,1.215,2.261,4.162,4.162,0,0,0,2.66.8,4.353,4.353,0,0,0,1.645-.276,8.621,8.621,0,0,0,1.035-.484l.551.912q-.153.1-.457.257a5.468,5.468,0,0,1-.741.314,7.072,7.072,0,0,1-.988.255,6.417,6.417,0,0,1-1.215.105,6.065,6.065,0,0,1-1.967-.314,4.735,4.735,0,0,1-1.615-.92A4.3,4.3,0,0,1,907,57.38a5.041,5.041,0,0,1-.4-2.072,5.491,5.491,0,0,1,.381-2.08,4.7,4.7,0,0,1,1.064-1.615,4.776,4.776,0,0,1,1.624-1.045,5.577,5.577,0,0,1,2.062-.371,5.674,5.674,0,0,1,1.662.219,3.336,3.336,0,0,1,1.187.617,2.563,2.563,0,0,1,.713.94,2.888,2.888,0,0,1,.238,1.169,2.561,2.561,0,0,1-.257,1.15,2.3,2.3,0,0,1-.873.912,5.061,5.061,0,0,1-1.655.608,12.934,12.934,0,0,1-2.611.218q-.609,0-1.111-.009c-.336-.007-.688-.022-1.055-.048m-.039-.988c.343.025.676.042,1,.048s.662.01,1.017.01a11.519,11.519,0,0,0,2.128-.162,4.6,4.6,0,0,0,1.32-.428,1.593,1.593,0,0,0,.675-.627,1.613,1.613,0,0,0,.19-.76,1.706,1.706,0,0,0-.219-.893,1.678,1.678,0,0,0-.589-.58,2.7,2.7,0,0,0-.836-.313,4.813,4.813,0,0,0-.959-.095,3.754,3.754,0,0,0-1.578.314,3.382,3.382,0,0,0-1.149.845,3.931,3.931,0,0,0-.723,1.216,4.408,4.408,0,0,0-.275,1.425" fill="#ff4c42"/>
        <path id="Path_43" data-name="Path 43" d="M924.859,59.85V54.606a3.535,3.535,0,0,0-.789-2.451,3.678,3.678,0,0,0-4.76,0,3.561,3.561,0,0,0-.778,2.451V59.85h-1.254V54.226a4.262,4.262,0,0,1,.3-1.634,3.581,3.581,0,0,1,.874-1.273,3.968,3.968,0,0,1,1.387-.826,5.389,5.389,0,0,1,1.842-.295,5.48,5.48,0,0,1,1.854.295,3.973,3.973,0,0,1,1.4.826,3.577,3.577,0,0,1,.873,1.273,4.261,4.261,0,0,1,.3,1.634V59.85Z" fill="#ff4c42"/>
        <path id="Path_44" data-name="Path 44" d="M929.817,51.6v5.51a1.807,1.807,0,0,0,.552,1.5,2.247,2.247,0,0,0,1.443.437,2.943,2.943,0,0,0,1.065-.19,4.3,4.3,0,0,0,.759-.361l.551.817a2.413,2.413,0,0,1-.351.228,4.955,4.955,0,0,1-.571.266,4.256,4.256,0,0,1-.779.219,5.289,5.289,0,0,1-.979.085,3.7,3.7,0,0,1-1.31-.209,2.47,2.47,0,0,1-.912-.579,2.384,2.384,0,0,1-.541-.884,3.336,3.336,0,0,1-.181-1.121V48.564a.6.6,0,0,1,.685-.646,1.2,1.2,0,0,1,.332.047,1.784,1.784,0,0,1,.237.086v2.413h3.345a.693.693,0,0,1,.551.181.67.67,0,0,1,.152.446,1.038,1.038,0,0,1-.039.285c-.026.089-.051.165-.076.228Z" fill="#ff4c42"/>
        <path id="Path_45" data-name="Path 45" d="M941.578,51.147a.592.592,0,0,1-.1.342,1.741,1.741,0,0,1-.2.247,5.074,5.074,0,0,0-.817-.285,4.508,4.508,0,0,0-1.158-.133,3.838,3.838,0,0,0-1.3.19,2.01,2.01,0,0,0-.846.561,2.125,2.125,0,0,0-.456.921,5.355,5.355,0,0,0-.133,1.254v5.6h-1.254V53.655A3.285,3.285,0,0,1,936.3,51.1a4.144,4.144,0,0,1,2.887-.9,5.477,5.477,0,0,1,1.71.228q.684.228.684.722" fill="#ff4c42"/>
        <path id="Path_46" data-name="Path 46" d="M946.062,51.243a4.7,4.7,0,0,0-1.729.266,3.154,3.154,0,0,0-.912.494.875.875,0,0,1-.238-.266.712.712,0,0,1-.1-.38.619.619,0,0,1,.1-.361,1.137,1.137,0,0,1,.257-.266,2.791,2.791,0,0,1,.836-.342,6.4,6.4,0,0,1,1.748-.19,5.792,5.792,0,0,1,3.514.931,3.491,3.491,0,0,1,1.254,3v5.681q-.551.094-1.586.2a23.47,23.47,0,0,1-2.346.1,9.1,9.1,0,0,1-2.442-.266,3.929,3.929,0,0,1-1.434-.693,2.083,2.083,0,0,1-.684-.96,3.432,3.432,0,0,1-.172-1.064,3.573,3.573,0,0,1,.209-1.245,2.193,2.193,0,0,1,.713-.959,3.7,3.7,0,0,1,1.359-.627,8.5,8.5,0,0,1,2.147-.228c.278,0,.57.009.873.029s.593.037.865.057.52.041.741.066.4.045.523.057v-.114a3.136,3.136,0,0,0-.295-1.444,2.4,2.4,0,0,0-.779-.9,2.931,2.931,0,0,0-1.112-.456,6.8,6.8,0,0,0-1.31-.124m3.5,4.1c-.114-.025-.416-.076-.9-.152a15,15,0,0,0-2.157-.114,7.816,7.816,0,0,0-1.273.095,2.887,2.887,0,0,0-.979.332,1.623,1.623,0,0,0-.626.637,2.02,2.02,0,0,0-.219.988,1.637,1.637,0,0,0,.807,1.511,5.519,5.519,0,0,0,2.689.484,11.968,11.968,0,0,0,1.843-.1q.607-.1.817-.162Z" fill="#ff4c42"/>
        <path id="Path_47" data-name="Path 47" d="M953.244,46.492a.6.6,0,0,1,.684-.646,1.171,1.171,0,0,1,.333.048,1.67,1.67,0,0,1,.237.085v13.87h-1.254Z" fill="#ff4c42"/>
        <path id="Path_48" data-name="Path 48" d="M958.583,47.138a.939.939,0,0,1-.932.931.868.868,0,0,1-.646-.275.913.913,0,0,1-.266-.656.908.908,0,0,1,.912-.912.917.917,0,0,1,.657.266.872.872,0,0,1,.275.646m-1.539,3.971a.6.6,0,0,1,.684-.646,1.2,1.2,0,0,1,.332.047,1.8,1.8,0,0,1,.238.086v9.253h-1.254Z" fill="#ff4c42"/>
        <path id="Path_49" data-name="Path 49" d="M960.787,51.6a.692.692,0,0,1-.551-.181.668.668,0,0,1-.152-.446,1.043,1.043,0,0,1,.038-.285c.025-.088.051-.164.076-.228h7.961q.837,0,.836.627a.943.943,0,0,1-.142.485,4.862,4.862,0,0,1-.6.713q-.759.778-1.653,1.662t-1.8,1.738q-.914.855-1.768,1.644T961.49,58.71h7.505v1.14h-8.911V58.5q.664-.607,1.577-1.454t1.9-1.776q.988-.93,1.966-1.881t1.8-1.786Z" fill="#ff4c42"/>
        <path id="Path_50" data-name="Path 50" d="M971.046,55.973a3.359,3.359,0,0,0,1.217,2.261,4.159,4.159,0,0,0,2.66.8,4.342,4.342,0,0,0,1.643-.276,8.647,8.647,0,0,0,1.036-.484l.551.912c-.1.064-.253.15-.457.257a5.5,5.5,0,0,1-.74.314,7.11,7.11,0,0,1-.988.255,6.432,6.432,0,0,1-1.217.105,6.068,6.068,0,0,1-1.966-.314,4.736,4.736,0,0,1-1.615-.92,4.311,4.311,0,0,1-1.093-1.5,5.059,5.059,0,0,1-.4-2.072,5.489,5.489,0,0,1,.38-2.08,4.723,4.723,0,0,1,1.063-1.615,4.8,4.8,0,0,1,1.625-1.045,5.581,5.581,0,0,1,2.062-.371,5.674,5.674,0,0,1,1.662.219,3.328,3.328,0,0,1,1.187.617,2.563,2.563,0,0,1,.713.94,2.871,2.871,0,0,1,.238,1.169,2.587,2.587,0,0,1-.256,1.15,2.31,2.31,0,0,1-.875.912,5.066,5.066,0,0,1-1.653.608,12.963,12.963,0,0,1-2.613.218q-.607,0-1.111-.009c-.336-.007-.688-.022-1.055-.048m-.037-.988c.342.025.674.042,1,.048s.661.01,1.017.01a11.518,11.518,0,0,0,2.128-.162,4.6,4.6,0,0,0,1.32-.428,1.494,1.494,0,0,0,.864-1.387,1.6,1.6,0,0,0-.806-1.473,2.731,2.731,0,0,0-.836-.313,4.823,4.823,0,0,0-.96-.095,3.754,3.754,0,0,0-1.578.314,3.372,3.372,0,0,0-1.149.845,3.929,3.929,0,0,0-.722,1.216,4.329,4.329,0,0,0-.275,1.425" fill="#ff4c42"/>
        <path id="Path_51" data-name="Path 51" d="M988.7,46.492a.6.6,0,0,1,.685-.646,1.171,1.171,0,0,1,.333.048,1.647,1.647,0,0,1,.236.085V54.7c0,.305-.009.573-.027.808s-.042.44-.067.618a5.348,5.348,0,0,1-.59,1.672,4.39,4.39,0,0,1-1.045,1.254,4.571,4.571,0,0,1-1.443.788,5.522,5.522,0,0,1-1.767.275,5.21,5.21,0,0,1-2.043-.389,4.794,4.794,0,0,1-2.622-2.641,5.248,5.248,0,0,1,0-3.876,4.83,4.83,0,0,1,1.036-1.577,4.727,4.727,0,0,1,1.586-1.055,5.318,5.318,0,0,1,2.043-.38,4.6,4.6,0,0,1,2.185.494,4.052,4.052,0,0,1,1.5,1.35Zm-7.371,8.664a4.429,4.429,0,0,0,.256,1.511,3.6,3.6,0,0,0,.741,1.235,3.527,3.527,0,0,0,1.159.826,3.676,3.676,0,0,0,1.53.3,3.889,3.889,0,0,0,1.5-.284,3.275,3.275,0,0,0,1.159-.8,3.689,3.689,0,0,0,.74-1.216,4.5,4.5,0,0,0-.009-3.078,3.914,3.914,0,0,0-.761-1.254,3.493,3.493,0,0,0-1.158-.836,3.548,3.548,0,0,0-1.472-.3,3.806,3.806,0,0,0-1.53.294,3.393,3.393,0,0,0-1.159.828,3.683,3.683,0,0,0-.741,1.244,4.483,4.483,0,0,0-.256,1.529" fill="#ff4c42"/>
      </g>
    </g>
    <line id="Line_10" data-name="Line 10" x2="2" y2="11" transform="translate(889.95 43.35)" fill="none" stroke="#ff4c42" stroke-linecap="round" stroke-width="1.5"/>
  </g>
</svg>
