<svg xmlns="http://www.w3.org/2000/svg" width="50" height="30" viewBox="0 0 50 30">
  <g id="Group_114" data-name="Group 114" transform="translate(-1091 -190)">
    <path id="Rectangle_29" data-name="Rectangle 29" d="M0,0H20A30,30,0,0,1,50,30v0a0,0,0,0,1,0,0H30A30,30,0,0,1,0,0V0A0,0,0,0,1,0,0Z" transform="translate(1091 190)" fill="#ff4c42"/>
    <path id="Path_52" data-name="Path 52" d="M14.558.812q-.087.116-.565.682T12.775,2.929q-.74.87-1.682,1.987T9.164,7.221q.986,1.1,1.957,2.247t1.813,2.161q.841,1.016,1.465,1.784t.884,1.145H11.658q-.581-.783-1.725-2.16t-2.538-3q-1.218,1.451-2.262,2.827t-1.74,2.335H0q.29-.4.87-1.145t1.363-1.7q.783-.957,1.682-2.045t1.8-2.189q-.724-.811-1.421-1.566T3.016,4.539c-.387-.415-.72-.779-1-1.088s-.489-.541-.624-.7a4.7,4.7,0,0,1-.522-.7,1.469,1.469,0,0,1-.232-.783A1.361,1.361,0,0,1,.957.392,1.268,1.268,0,0,1,2,0a2.534,2.534,0,0,1,.827.1,4.2,4.2,0,0,1,.391.159L3.8.943q.407.477.972,1.131c.377.434.8.924,1.261,1.465s.957,1.111,1.479,1.71Q8.148,4.466,8.7,3.77t1-1.262c.3-.377.551-.69.753-.942s.344-.425.421-.522a5.808,5.808,0,0,1,.74-.725A1.78,1.78,0,0,1,12.76,0a2.126,2.126,0,0,1,1.2.3,2.482,2.482,0,0,1,.594.508" transform="translate(1108.358 197.721)" fill="#fff"/>
  </g>
</svg>
