<svg xmlns="http://www.w3.org/2000/svg" width="22.372" height="27.478" viewBox="0 0 22.372 27.478">
  <path id="Icon_metro-bin" data-name="Icon metro-bin" d="M6.22,10.515V27.688a1.724,1.724,0,0,0,1.721,1.717H23.429a1.724,1.724,0,0,0,1.721-1.717V10.515H6.22Zm5.163,15.456H9.661V13.949h1.721Zm3.442,0H13.1V13.949h1.721Zm3.442,0H16.545V13.949h1.721Zm3.442,0H19.987V13.949h1.721ZM25.58,5.363H19.987V3.216A1.293,1.293,0,0,0,18.7,1.928H12.673a1.293,1.293,0,0,0-1.291,1.288V5.363H5.789A1.293,1.293,0,0,0,4.5,6.651V8.8H26.871V6.651A1.293,1.293,0,0,0,25.58,5.363Zm-7.314,0H13.1v-1.7h5.163v1.7Z" transform="translate(-4.499 -1.928)" fill="#ff4c42"/>
</svg>

