<svg xmlns="http://www.w3.org/2000/svg" xmlns:xlink="http://www.w3.org/1999/xlink" width="42" height="42" viewBox="0 0 42 42">
  <defs>
    <filter id="Ellipse_1" x="0" y="0" width="42" height="42" filterUnits="userSpaceOnUse">
      <feOffset dx="2" dy="2" input="SourceAlpha"/>
      <feGaussianBlur stdDeviation="1.5" result="blur"/>
      <feFlood flood-opacity="0.251"/>
      <feComposite operator="in" in2="blur"/>
      <feComposite in="SourceGraphic"/>
    </filter>
  </defs>
  <g id="Group_2" data-name="Group 2" transform="translate(-552.5 -376.5)">
    <g transform="matrix(1, 0, 0, 1, 552.5, 376.5)" filter="url(#Ellipse_1)">
      <circle id="Ellipse_1-2" data-name="Ellipse 1" cx="16.5" cy="16.5" r="16.5" transform="translate(2.5 2.5)" fill="#999"/>
    </g>
    <path id="Path_8" data-name="Path 8" d="M34.3,18.652A15.652,15.652,0,1,1,18.652,3,15.652,15.652,0,0,1,34.3,18.652Z" transform="translate(552.154 376.169)" fill="#323031"/>
    <path id="Path_9" data-name="Path 9" d="M13.635,13.631a4.7,4.7,0,0,1,5.223-3.07,4.472,4.472,0,0,1,3.916,4.574c0,3.13-3.577,2.887-4.481,6.285" transform="translate(552.616 376.495)" fill="#323031" stroke="#fff" stroke-linecap="round" stroke-linejoin="round" stroke-width="2.6"/>
    <path id="Path_10" data-name="Path 10" d="M18,25.5h0" transform="translate(552.806 377.148)" fill="#323031" stroke="#fff" stroke-linecap="round" stroke-linejoin="round" stroke-width="2.6"/>
  </g>
</svg>
