<svg xmlns="http://www.w3.org/2000/svg" xmlns:xlink="http://www.w3.org/1999/xlink" width="30" height="30" viewBox="0 0 30 30">
  <defs>
    <clipPath id="clip-path">
      <rect id="Rectangle_35" data-name="Rectangle 35" width="11.475" height="17.974" transform="translate(0 0)" fill="none"/>
    </clipPath>
  </defs>
  <g id="Group_89" data-name="Group 89" transform="translate(-625 -100)">
    <circle id="Ellipse_1" data-name="Ellipse 1" cx="15" cy="15" r="15" transform="translate(625 100)" fill="#ff4c42"/>
    <g id="Group_88" data-name="Group 88" transform="translate(634.262 106.013)">
      <g id="Group_88-2" data-name="Group 88" clip-path="url(#clip-path)">
        <path id="Path_52" data-name="Path 52" d="M5.3,2.05a4.3,4.3,0,0,0-1.75.313,4.479,4.479,0,0,0-1.15.711,3.325,3.325,0,0,0-.675.789A3.565,3.565,0,0,0,1.45,4.4Q0,4.2,0,3.025A3.428,3.428,0,0,1,.125,2.35,2.26,2.26,0,0,1,.788,1.324,4.575,4.575,0,0,1,2.437.4,9.45,9.45,0,0,1,5.525,0,8.283,8.283,0,0,1,8.263.4a5.108,5.108,0,0,1,1.85,1.075A4.12,4.12,0,0,1,11.15,3a4.855,4.855,0,0,1,.325,1.75,5.319,5.319,0,0,1-.212,1.563A4.88,4.88,0,0,1,10.7,7.537a4.936,4.936,0,0,1-.8.951q-.45.411-.925.787Q8.3,9.8,7.8,10.15a6.813,6.813,0,0,0-.825.663,2.151,2.151,0,0,0-.487.675,2.29,2.29,0,0,0-.163.937H3.75a6.061,6.061,0,0,1,.15-1.45,3.5,3.5,0,0,1,.438-1.05,3.109,3.109,0,0,1,.724-.788A10.047,10.047,0,0,1,6.1,8.449,7.839,7.839,0,0,0,8.1,6.9a2.9,2.9,0,0,0,.7-1.975,3.253,3.253,0,0,0-.187-1.1A2.253,2.253,0,0,0,8,2.912a3.218,3.218,0,0,0-1.088-.625A4.809,4.809,0,0,0,5.3,2.05M6.85,16.2a1.7,1.7,0,0,1-.525,1.264,1.759,1.759,0,0,1-1.275.511,1.8,1.8,0,0,1-1.287-.511A1.677,1.677,0,0,1,3.225,16.2a1.741,1.741,0,0,1,.538-1.3,1.78,1.78,0,0,1,1.287-.525,1.74,1.74,0,0,1,1.275.525,1.764,1.764,0,0,1,.525,1.3" fill="#fff"/>
      </g>
    </g>
  </g>
</svg>
