<svg xmlns="http://www.w3.org/2000/svg" width="38.548" height="33.707" viewBox="0 0 38.548 33.707">
  <path id="Path_3" data-name="Path 3" d="M25.7,60.035H30.37A2.337,2.337,0,0,0,32.706,57.7V39.009a2.337,2.337,0,0,0-2.336-2.336H25.7A2.336,2.336,0,1,1,25.7,32H30.37a7.009,7.009,0,0,1,7.009,7.009V57.7a7.009,7.009,0,0,1-7.009,7.009H25.7a2.336,2.336,0,0,1,0-4.672ZM.685,46.7l9.345-9.345a2.336,2.336,0,0,1,3.3,3.3L7.971,46.017h15.39a2.336,2.336,0,1,1,0,4.672H7.971l5.357,5.357a2.336,2.336,0,0,1-3.3,3.3L.68,50.006A2.338,2.338,0,0,1,.685,46.7Z" transform="translate(0.669 -31.5)" fill="#ff4c42" stroke="#fff" stroke-width="1"/>
</svg>
