<svg xmlns="http://www.w3.org/2000/svg" width="45.431" height="35.744" viewBox="0 0 45.431 35.744">
  <path id="Path_1" data-name="Path 1" d="M39.412,10.484a3.377,3.377,0,0,0-5.97,0C27.395,22.312,27.6,21.742,27.6,22.8c0,2.995,3.98,5.429,8.9,5.429S45.33,25.795,45.33,22.8C45.266,21.708,45.426,22.21,39.412,10.484Zm-8.05,11.231,5-9.772,5.017,9.772ZM18.633,22.8c0-1.094.1-.594-5.917-12.316a3.377,3.377,0,0,0-5.97,0C.7,22.312.9,21.742.9,22.8c0,2.995,3.98,5.429,8.836,5.429S18.633,25.793,18.633,22.8ZM9.728,11.943l5.019,9.772H4.726ZM35.255,30.4H25.307v-20a5.479,5.479,0,0,0,3.226-3.888h7.9a2.145,2.145,0,0,0,2.162-2.171A2.185,2.185,0,0,0,36.43,2.171H27.5A5.565,5.565,0,0,0,23.081,0a5.467,5.467,0,0,0-4.42,2.171H9.735a2.172,2.172,0,1,0-.063,4.343h7.9A5.464,5.464,0,0,0,20.793,10.4v20H10.847a3.3,3.3,0,0,0-3.338,3.257,1.1,1.1,0,0,0,1.112,1.086h28.92a1.1,1.1,0,0,0,1.112-1.086A3.313,3.313,0,0,0,35.255,30.4Z" transform="translate(-0.399 0.5)" fill="#ff4c42" stroke="#fff" stroke-width="1"/>
</svg>
