<svg xmlns="http://www.w3.org/2000/svg" width="129.838" height="23.964" viewBox="0 0 129.838 23.964">
  <g id="metamask-seeklogo.com" transform="translate(-0.875 -0.875)">
    <path id="Path_52" data-name="Path 52" d="M149.421,14.769c-.674-.445-1.417-.761-2.12-1.156a9.039,9.039,0,0,1-1.338-.81,1.346,1.346,0,0,1,.169-2.114,1.826,1.826,0,0,1,2.863,1.077.055.055,0,0,0,.059.049h1.526a.056.056,0,0,0,.059-.069A3,3,0,0,0,149.52,9.5a3.551,3.551,0,0,0-2.16-.741c-4.032,0-4.4,4.259-2.229,5.6.248.158,2.378,1.225,3.131,1.69a1.543,1.543,0,0,1,.663,1.986,1.952,1.952,0,0,1-1.842.988,1.822,1.822,0,0,1-1.724-1.215,2.15,2.15,0,0,1-.059-.484.064.064,0,0,0-.059-.059h-1.654a.064.064,0,0,0-.059.059,2.645,2.645,0,0,0,1.11,2.46,3.982,3.982,0,0,0,2.457.81c2.259,0,3.428-1.275,3.665-2.6A3.059,3.059,0,0,0,149.421,14.769Z" transform="translate(-33.843 -1.843)" fill="#161616"/>
    <path id="Path_53" data-name="Path 53" d="M54.854,9.047H53.319a.067.067,0,0,0-.059.04L51.9,13.553a.062.062,0,0,1-.119,0L50.426,9.086a.054.054,0,0,0-.059-.04H47.841a.064.064,0,0,0-.059.059v11.4a.064.064,0,0,0,.059.059H49.5a.064.064,0,0,0,.059-.059V11.843a.062.062,0,0,1,.119-.02l1.367,4.5.1.316a.054.054,0,0,0,.059.04h1.268a.067.067,0,0,0,.059-.04l.1-.316,1.367-4.5a.061.061,0,0,1,.119.02v8.666a.064.064,0,0,0,.059.059h1.654a.064.064,0,0,0,.059-.059V9.106a.064.064,0,0,0-.059-.059Z" transform="translate(-11.108 -1.911)" fill="#161616"/>
    <path id="Path_54" data-name="Path 54" d="M116.316,9.047a.067.067,0,0,0-.059.04L114.9,13.553a.062.062,0,0,1-.119,0l-1.357-4.466a.054.054,0,0,0-.059-.04h-2.516a.064.064,0,0,0-.059.059v11.4a.064.064,0,0,0,.059.059H112.5a.064.064,0,0,0,.059-.059V11.843a.062.062,0,0,1,.119-.02l1.366,4.5.1.316a.054.054,0,0,0,.059.04h1.268a.067.067,0,0,0,.059-.04l.1-.316,1.367-4.5a.061.061,0,0,1,.119.02v8.666a.064.064,0,0,0,.059.059h1.654a.064.064,0,0,0,.059-.059V9.106a.064.064,0,0,0-.059-.059Z" transform="translate(-26.069 -1.911)" fill="#161616"/>
    <path id="Path_55" data-name="Path 55" d="M87.6,9.047H79.786a.064.064,0,0,0-.059.059v1.423a.064.064,0,0,0,.059.059h3.021v9.92a.064.064,0,0,0,.059.059h1.654a.064.064,0,0,0,.059-.059v-9.92H87.6a.064.064,0,0,0,.059-.059V9.106A.057.057,0,0,0,87.6,9.047Z" transform="translate(-18.693 -1.911)" fill="#161616"/>
    <path id="Path_56" data-name="Path 56" d="M100.691,20.556H102.2a.063.063,0,0,0,.059-.079L99.145,9.034a.054.054,0,0,0-.059-.04H96.926a.067.067,0,0,0-.059.04L93.756,20.477a.063.063,0,0,0,.059.079h1.506a.067.067,0,0,0,.059-.039l.9-3.33a.054.054,0,0,1,.059-.039h3.329a.067.067,0,0,1,.059.039l.9,3.33A.081.081,0,0,0,100.691,20.556Zm-3.953-5.039,1.209-4.456a.062.062,0,0,1,.119,0l1.209,4.456a.063.063,0,0,1-.059.079H96.8A.063.063,0,0,1,96.738,15.516Z" transform="translate(-22.024 -1.898)" fill="#161616"/>
    <path id="Path_57" data-name="Path 57" d="M134.364,20.556h1.505a.063.063,0,0,0,.059-.079l-3.11-11.442a.054.054,0,0,0-.059-.04H130.6a.067.067,0,0,0-.059.04l-3.11,11.442a.063.063,0,0,0,.059.079h1.506a.067.067,0,0,0,.059-.039l.9-3.33a.054.054,0,0,1,.059-.039h3.329a.067.067,0,0,1,.06.039l.9,3.33A.067.067,0,0,0,134.364,20.556Zm-3.953-5.039,1.209-4.456a.062.062,0,0,1,.119,0l1.209,4.456a.063.063,0,0,1-.059.079H130.47A.063.063,0,0,1,130.411,15.516Z" transform="translate(-30.02 -1.898)" fill="#161616"/>
    <path id="Path_58" data-name="Path 58" d="M66.664,18.881V15.344a.064.064,0,0,1,.059-.059h4.408a.064.064,0,0,0,.059-.059V13.8a.064.064,0,0,0-.059-.059H66.723a.064.064,0,0,1-.059-.059V10.661a.064.064,0,0,1,.059-.059h5.013a.064.064,0,0,0,.059-.059V9.119a.064.064,0,0,0-.059-.059H64.95a.064.064,0,0,0-.059.059V20.512a.064.064,0,0,0,.059.059h6.994A.064.064,0,0,0,72,20.512v-1.5a.064.064,0,0,0-.059-.059H66.713A.066.066,0,0,1,66.664,18.881Z" transform="translate(-15.171 -1.914)" fill="#161616"/>
    <path id="Path_59" data-name="Path 59" d="M168.276,20.472l-5.726-5.9a.06.06,0,0,1,0-.079L167.7,9.159a.057.057,0,0,0-.04-.1h-2.11a.052.052,0,0,0-.04.02l-4.369,4.525a.057.057,0,0,1-.1-.04V9.119a.064.064,0,0,0-.059-.059H159.33a.064.064,0,0,0-.059.059v11.4a.064.064,0,0,0,.059.059h1.655a.064.064,0,0,0,.059-.059V15.5c0-.049.069-.079.1-.04l4.953,5.1a.075.075,0,0,0,.04.02h2.11C168.286,20.571,168.316,20.5,168.276,20.472Z" transform="translate(-37.581 -1.914)" fill="#161616"/>
    <path id="Path_60" data-name="Path 60" d="M29.84,1,19.824,8.411l1.862-4.367Z" transform="translate(-4.47)" fill="#e17726" stroke="#e17726" stroke-linecap="round" stroke-linejoin="round" stroke-width="0.25"/>
    <path id="Path_61" data-name="Path 61" d="M2.663,1l9.926,7.48L10.816,4.043Z" transform="translate(-0.395)" fill="#e27625" stroke="#e27625" stroke-linecap="round" stroke-linejoin="round" stroke-width="0.25"/>
    <path id="Path_62" data-name="Path 62" d="M27.4,23.533,24.735,27.6l5.706,1.571,1.635-5.553Z" transform="translate(-5.636 -5.351)" fill="#e27625" stroke="#e27625" stroke-linecap="round" stroke-linejoin="round" stroke-width="0.25"/>
    <path id="Path_63" data-name="Path 63" d="M1.273,23.622,2.9,29.175l5.7-1.571L5.939,23.533Z" transform="translate(-0.065 -5.351)" fill="#e27625" stroke="#e27625" stroke-linecap="round" stroke-linejoin="round" stroke-width="0.25"/>
    <path id="Path_64" data-name="Path 64" d="M9.977,13.447,8.392,15.838l5.647.257-.188-6.077Z" transform="translate(-1.755 -2.141)" fill="#e27625" stroke="#e27625" stroke-linecap="round" stroke-linejoin="round" stroke-width="0.25"/>
    <path id="Path_65" data-name="Path 65" d="M23.886,13.426l-3.933-3.5-.129,6.146,5.647-.257Z" transform="translate(-4.47 -2.12)" fill="#e27625" stroke="#e27625" stroke-linecap="round" stroke-linejoin="round" stroke-width="0.25"/>
    <path id="Path_66" data-name="Path 66" d="M10.873,27.644l3.418-1.65L11.349,23.7Z" transform="translate(-2.344 -5.391)" fill="#e27625" stroke="#e27625" stroke-linecap="round" stroke-linejoin="round" stroke-width="0.25"/>
    <path id="Path_67" data-name="Path 67" d="M20.266,25.994l3.408,1.65L23.208,23.7Z" transform="translate(-4.575 -5.391)" fill="#e27625" stroke="#e27625" stroke-linecap="round" stroke-linejoin="round" stroke-width="0.25"/>
    <path id="Path_68" data-name="Path 68" d="M23.674,28.358l-3.408-1.65.277,2.213-.03.939Z" transform="translate(-4.575 -6.104)" fill="#d5bfb2" stroke="#d5bfb2" stroke-linecap="round" stroke-linejoin="round" stroke-width="0.25"/>
    <path id="Path_69" data-name="Path 69" d="M10.873,28.358l3.17,1.5-.02-.939.267-2.213Z" transform="translate(-2.344 -6.104)" fill="#d5bfb2" stroke="#d5bfb2" stroke-linecap="round" stroke-linejoin="round" stroke-width="0.25"/>
    <path id="Path_70" data-name="Path 70" d="M14.226,21.24l-2.833-.83,2-.919Z" transform="translate(-2.468 -4.391)" fill="#233447" stroke="#233447" stroke-linecap="round" stroke-linejoin="round" stroke-width="0.25"/>
    <path id="Path_71" data-name="Path 71" d="M20.513,21.24l.832-1.749,2.011.919Z" transform="translate(-4.633 -4.391)" fill="#233447" stroke="#233447" stroke-linecap="round" stroke-linejoin="round" stroke-width="0.25"/>
    <path id="Path_72" data-name="Path 72" d="M10.046,27.6l.5-4.071-3.15.089Z" transform="translate(-1.518 -5.351)" fill="#cc6228" stroke="#cc6228" stroke-linecap="round" stroke-linejoin="round" stroke-width="0.25"/>
    <path id="Path_73" data-name="Path 73" d="M24.1,23.533l.485,4.071,2.665-3.982Z" transform="translate(-5.485 -5.351)" fill="#cc6228" stroke="#cc6228" stroke-linecap="round" stroke-linejoin="round" stroke-width="0.25"/>
    <path id="Path_74" data-name="Path 74" d="M25.471,17.651l-5.647.257.525,2.9.832-1.749,2.011.919Z" transform="translate(-4.47 -3.954)" fill="#cc6228" stroke="#cc6228" stroke-linecap="round" stroke-linejoin="round" stroke-width="0.25"/>
    <path id="Path_75" data-name="Path 75" d="M10.68,19.973l2-.919.832,1.749.525-2.9-5.647-.257Z" transform="translate(-1.755 -3.954)" fill="#cc6228" stroke="#cc6228" stroke-linecap="round" stroke-linejoin="round" stroke-width="0.25"/>
    <path id="Path_76" data-name="Path 76" d="M8.392,17.651l2.368,4.614-.079-2.292Z" transform="translate(-1.755 -3.954)" fill="#e27525" stroke="#e27525" stroke-linecap="round" stroke-linejoin="round" stroke-width="0.25"/>
    <path id="Path_77" data-name="Path 77" d="M24.213,19.973l-.089,2.292,2.368-4.614Z" transform="translate(-5.491 -3.954)" fill="#e27525" stroke="#e27525" stroke-linecap="round" stroke-linejoin="round" stroke-width="0.25"/>
    <path id="Path_78" data-name="Path 78" d="M15.634,17.987l-.525,2.9.664,3.419.149-4.506Z" transform="translate(-3.35 -4.034)" fill="#e27525" stroke="#e27525" stroke-linecap="round" stroke-linejoin="round" stroke-width="0.25"/>
    <path id="Path_79" data-name="Path 79" d="M19.738,17.987l-.277,1.8L19.6,24.3l.664-3.419Z" transform="translate(-4.383 -4.034)" fill="#e27525" stroke="#e27525" stroke-linecap="round" stroke-linejoin="round" stroke-width="0.25"/>
    <path id="Path_80" data-name="Path 80" d="M20.306,21.526l-.664,3.419.476.336,2.942-2.292.089-2.292Z" transform="translate(-4.427 -4.677)" fill="#f5841f" stroke="#f5841f" stroke-linecap="round" stroke-linejoin="round" stroke-width="0.25"/>
    <path id="Path_81" data-name="Path 81" d="M11.393,20.7l.079,2.292,2.942,2.292.476-.336-.664-3.419Z" transform="translate(-2.468 -4.677)" fill="#f5841f" stroke="#f5841f" stroke-linecap="round" stroke-linejoin="round" stroke-width="0.25"/>
    <path id="Path_82" data-name="Path 82" d="M18.283,30.374l.03-.939-.258-.217H14.271l-.248.217.02.939-3.17-1.5,1.11.909,2.249,1.551h3.854l2.259-1.551,1.1-.909Z" transform="translate(-2.344 -6.618)" fill="#c0ac9d" stroke="#c0ac9d" stroke-linecap="round" stroke-linejoin="round" stroke-width="0.25"/>
    <path id="Path_83" data-name="Path 83" d="M19.016,26.6l-.476-.336H15.747l-.475.336L15,28.817l.248-.217h3.784l.258.217Z" transform="translate(-3.325 -6)" fill="#161616" stroke="#161616" stroke-linecap="round" stroke-linejoin="round" stroke-width="0.25"/>
    <path id="Path_84" data-name="Path 84" d="M30.37,8.895,31.212,4.8,29.944,1,20.266,8.164l3.725,3.142,5.26,1.532,1.159-1.354-.505-.366.8-.731-.614-.474.8-.613Z" transform="translate(-4.575)" fill="#763e1a" stroke="#763e1a" stroke-linecap="round" stroke-linejoin="round" stroke-width="0.25"/>
    <path id="Path_85" data-name="Path 85" d="M1,4.8l.852,4.091L1.307,9.3l.812.613-.614.474.8.731-.505.366,1.159,1.354,5.26-1.532,3.725-3.142L2.268,1Z" fill="#763e1a" stroke="#763e1a" stroke-linecap="round" stroke-linejoin="round" stroke-width="0.25"/>
    <path id="Path_86" data-name="Path 86" d="M30.167,16.046l-5.26-1.532,1.585,2.391L24.124,21.52l3.13-.039h4.676Z" transform="translate(-5.491 -3.209)" fill="#f5841f" stroke="#f5841f" stroke-linecap="round" stroke-linejoin="round" stroke-width="0.25"/>
    <path id="Path_87" data-name="Path 87" d="M8.286,14.515l-5.26,1.532L1.273,21.481H5.939l3.13.039L6.7,16.906Z" transform="translate(-0.065 -3.209)" fill="#f5841f" stroke="#f5841f" stroke-linecap="round" stroke-linejoin="round" stroke-width="0.25"/>
    <path id="Path_88" data-name="Path 88" d="M18.288,14.9l.337-5.79,1.526-4.12h-6.8l1.526,4.12.337,5.79.129,1.818.01,4.5h2.794l.01-4.5Z" transform="translate(-2.934 -0.948)" fill="#f5841f" stroke="#f5841f" stroke-linecap="round" stroke-linejoin="round" stroke-width="0.25"/>
  </g>
</svg>
